<mxfile host="app.diagrams.net" modified="2024-01-22T14:55:15.377Z" agent="Mozilla/5.0 (Macintosh; Intel Mac OS X 10_15_7) AppleWebKit/537.36 (KHTML, like Gecko) Chrome/120.0.0.0 Safari/537.36" etag="cLMVj91vxarpkoy9ZD5X" version="22.1.21" type="device">
  <diagram name="Page-1" id="G5q9KZHV6r75h-XVTquL">
    <mxGraphModel dx="1257" dy="686" grid="1" gridSize="10" guides="1" tooltips="1" connect="1" arrows="1" fold="1" page="1" pageScale="1" pageWidth="827" pageHeight="1169" math="0" shadow="0">
      <root>
        <mxCell id="0" />
        <mxCell id="1" parent="0" />
        <mxCell id="Ake1GuRM7ROGLEXvObE3-34" value="" style="rounded=1;whiteSpace=wrap;html=1;fillColor=#D9E7D6;shadow=0;" vertex="1" parent="1">
          <mxGeometry x="120" y="540" width="120" height="60" as="geometry" />
        </mxCell>
        <mxCell id="Ake1GuRM7ROGLEXvObE3-1" value="Página Inicial" style="rounded=1;whiteSpace=wrap;html=1;" vertex="1" parent="1">
          <mxGeometry x="354" y="40" width="120" height="60" as="geometry" />
        </mxCell>
        <mxCell id="Ake1GuRM7ROGLEXvObE3-2" value="Login" style="rounded=1;whiteSpace=wrap;html=1;" vertex="1" parent="1">
          <mxGeometry x="284" y="200" width="120" height="60" as="geometry" />
        </mxCell>
        <mxCell id="Ake1GuRM7ROGLEXvObE3-3" value="Registo" style="rounded=1;whiteSpace=wrap;html=1;" vertex="1" parent="1">
          <mxGeometry x="120" y="200" width="120" height="60" as="geometry" />
        </mxCell>
        <mxCell id="Ake1GuRM7ROGLEXvObE3-4" value="Termos e Condições" style="rounded=1;whiteSpace=wrap;html=1;" vertex="1" parent="1">
          <mxGeometry x="440" y="200" width="120" height="60" as="geometry" />
        </mxCell>
        <mxCell id="Ake1GuRM7ROGLEXvObE3-5" value="Sobre Nós" style="rounded=1;whiteSpace=wrap;html=1;" vertex="1" parent="1">
          <mxGeometry x="600" y="200" width="120" height="60" as="geometry" />
        </mxCell>
        <mxCell id="Ake1GuRM7ROGLEXvObE3-6" value="Registo de Munícipe" style="rounded=1;whiteSpace=wrap;html=1;" vertex="1" parent="1">
          <mxGeometry x="40" y="350" width="120" height="60" as="geometry" />
        </mxCell>
        <mxCell id="Ake1GuRM7ROGLEXvObE3-7" value="Registo de Administrador Municipal" style="rounded=1;whiteSpace=wrap;html=1;" vertex="1" parent="1">
          <mxGeometry x="200" y="350" width="120" height="60" as="geometry" />
        </mxCell>
        <mxCell id="Ake1GuRM7ROGLEXvObE3-8" value="" style="endArrow=none;html=1;rounded=0;exitX=0.5;exitY=1;exitDx=0;exitDy=0;entryX=0.5;entryY=0;entryDx=0;entryDy=0;" edge="1" parent="1" source="Ake1GuRM7ROGLEXvObE3-1" target="Ake1GuRM7ROGLEXvObE3-2">
          <mxGeometry width="50" height="50" relative="1" as="geometry">
            <mxPoint x="460" y="360" as="sourcePoint" />
            <mxPoint x="510" y="310" as="targetPoint" />
          </mxGeometry>
        </mxCell>
        <mxCell id="Ake1GuRM7ROGLEXvObE3-9" value="" style="endArrow=none;html=1;rounded=0;exitX=0.5;exitY=1;exitDx=0;exitDy=0;entryX=0.5;entryY=0;entryDx=0;entryDy=0;" edge="1" parent="1" source="Ake1GuRM7ROGLEXvObE3-1" target="Ake1GuRM7ROGLEXvObE3-3">
          <mxGeometry width="50" height="50" relative="1" as="geometry">
            <mxPoint x="424" y="110" as="sourcePoint" />
            <mxPoint x="190" y="210" as="targetPoint" />
          </mxGeometry>
        </mxCell>
        <mxCell id="Ake1GuRM7ROGLEXvObE3-10" value="" style="endArrow=none;html=1;rounded=0;entryX=0.5;entryY=1;entryDx=0;entryDy=0;exitX=0.5;exitY=0;exitDx=0;exitDy=0;" edge="1" parent="1" source="Ake1GuRM7ROGLEXvObE3-4" target="Ake1GuRM7ROGLEXvObE3-1">
          <mxGeometry width="50" height="50" relative="1" as="geometry">
            <mxPoint x="420" y="170" as="sourcePoint" />
            <mxPoint x="470" y="120" as="targetPoint" />
          </mxGeometry>
        </mxCell>
        <mxCell id="Ake1GuRM7ROGLEXvObE3-11" value="" style="endArrow=none;html=1;rounded=0;entryX=0.5;entryY=1;entryDx=0;entryDy=0;exitX=0.5;exitY=0;exitDx=0;exitDy=0;" edge="1" parent="1" source="Ake1GuRM7ROGLEXvObE3-5" target="Ake1GuRM7ROGLEXvObE3-1">
          <mxGeometry width="50" height="50" relative="1" as="geometry">
            <mxPoint x="540" y="170" as="sourcePoint" />
            <mxPoint x="590" y="120" as="targetPoint" />
          </mxGeometry>
        </mxCell>
        <mxCell id="Ake1GuRM7ROGLEXvObE3-12" value="" style="endArrow=none;html=1;rounded=0;entryX=0.5;entryY=1;entryDx=0;entryDy=0;exitX=0.5;exitY=0;exitDx=0;exitDy=0;" edge="1" parent="1" source="Ake1GuRM7ROGLEXvObE3-6" target="Ake1GuRM7ROGLEXvObE3-3">
          <mxGeometry width="50" height="50" relative="1" as="geometry">
            <mxPoint x="260" y="330" as="sourcePoint" />
            <mxPoint x="310" y="280" as="targetPoint" />
          </mxGeometry>
        </mxCell>
        <mxCell id="Ake1GuRM7ROGLEXvObE3-13" value="" style="endArrow=none;html=1;rounded=0;entryX=0.5;entryY=1;entryDx=0;entryDy=0;exitX=0.5;exitY=0;exitDx=0;exitDy=0;" edge="1" parent="1" source="Ake1GuRM7ROGLEXvObE3-7" target="Ake1GuRM7ROGLEXvObE3-3">
          <mxGeometry width="50" height="50" relative="1" as="geometry">
            <mxPoint x="410" y="340" as="sourcePoint" />
            <mxPoint x="460" y="290" as="targetPoint" />
          </mxGeometry>
        </mxCell>
        <mxCell id="Ake1GuRM7ROGLEXvObE3-18" style="edgeStyle=orthogonalEdgeStyle;rounded=0;orthogonalLoop=1;jettySize=auto;html=1;" edge="1" parent="1" source="Ake1GuRM7ROGLEXvObE3-14">
          <mxGeometry relative="1" as="geometry">
            <mxPoint x="350" y="70" as="targetPoint" />
            <Array as="points">
              <mxPoint x="30" y="550" />
              <mxPoint x="30" y="70" />
            </Array>
          </mxGeometry>
        </mxCell>
        <mxCell id="Ake1GuRM7ROGLEXvObE3-14" value="Registo de Sucesso" style="rounded=1;whiteSpace=wrap;html=1;fillColor=#DDF8FA;" vertex="1" parent="1">
          <mxGeometry x="120" y="520" width="120" height="60" as="geometry" />
        </mxCell>
        <mxCell id="Ake1GuRM7ROGLEXvObE3-15" value="" style="endArrow=none;html=1;rounded=0;entryX=0.5;entryY=1;entryDx=0;entryDy=0;exitX=0.5;exitY=0;exitDx=0;exitDy=0;" edge="1" parent="1" source="Ake1GuRM7ROGLEXvObE3-14" target="Ake1GuRM7ROGLEXvObE3-7">
          <mxGeometry width="50" height="50" relative="1" as="geometry">
            <mxPoint x="460" y="360" as="sourcePoint" />
            <mxPoint x="510" y="310" as="targetPoint" />
          </mxGeometry>
        </mxCell>
        <mxCell id="Ake1GuRM7ROGLEXvObE3-16" value="" style="endArrow=none;html=1;rounded=0;exitX=0.5;exitY=0;exitDx=0;exitDy=0;entryX=0.5;entryY=1;entryDx=0;entryDy=0;" edge="1" parent="1" source="Ake1GuRM7ROGLEXvObE3-14" target="Ake1GuRM7ROGLEXvObE3-6">
          <mxGeometry width="50" height="50" relative="1" as="geometry">
            <mxPoint x="140" y="450" as="sourcePoint" />
            <mxPoint x="190" y="400" as="targetPoint" />
          </mxGeometry>
        </mxCell>
        <mxCell id="Ake1GuRM7ROGLEXvObE3-21" value="Home" style="rounded=1;whiteSpace=wrap;html=1;" vertex="1" parent="1">
          <mxGeometry x="284" y="520" width="120" height="60" as="geometry" />
        </mxCell>
        <mxCell id="Ake1GuRM7ROGLEXvObE3-23" value="" style="endArrow=none;html=1;rounded=0;entryX=0.5;entryY=1;entryDx=0;entryDy=0;exitX=0.5;exitY=0;exitDx=0;exitDy=0;" edge="1" parent="1" source="Ake1GuRM7ROGLEXvObE3-21" target="Ake1GuRM7ROGLEXvObE3-2">
          <mxGeometry width="50" height="50" relative="1" as="geometry">
            <mxPoint x="150" y="340" as="sourcePoint" />
            <mxPoint x="200" y="290" as="targetPoint" />
          </mxGeometry>
        </mxCell>
        <mxCell id="Ake1GuRM7ROGLEXvObE3-35" value="Registo de Município" style="rounded=1;whiteSpace=wrap;html=1;fillColor=#D9E7D6;" vertex="1" parent="1">
          <mxGeometry x="390" y="350" width="120" height="60" as="geometry" />
        </mxCell>
        <mxCell id="Ake1GuRM7ROGLEXvObE3-36" value="" style="endArrow=none;html=1;rounded=0;exitX=1;exitY=0.5;exitDx=0;exitDy=0;entryX=0;entryY=0.5;entryDx=0;entryDy=0;" edge="1" parent="1" source="Ake1GuRM7ROGLEXvObE3-7" target="Ake1GuRM7ROGLEXvObE3-35">
          <mxGeometry width="50" height="50" relative="1" as="geometry">
            <mxPoint x="550" y="500" as="sourcePoint" />
            <mxPoint x="600" y="450" as="targetPoint" />
          </mxGeometry>
        </mxCell>
        <mxCell id="Ake1GuRM7ROGLEXvObE3-37" value="" style="endArrow=none;html=1;rounded=0;entryX=0.5;entryY=1;entryDx=0;entryDy=0;exitX=0.5;exitY=0;exitDx=0;exitDy=0;" edge="1" parent="1" source="Ake1GuRM7ROGLEXvObE3-14" target="Ake1GuRM7ROGLEXvObE3-35">
          <mxGeometry width="50" height="50" relative="1" as="geometry">
            <mxPoint x="580" y="520" as="sourcePoint" />
            <mxPoint x="630" y="470" as="targetPoint" />
          </mxGeometry>
        </mxCell>
        <mxCell id="Ake1GuRM7ROGLEXvObE3-38" value="" style="group" vertex="1" connectable="0" parent="1">
          <mxGeometry x="600" y="330" width="120" height="160" as="geometry" />
        </mxCell>
        <mxCell id="Ake1GuRM7ROGLEXvObE3-24" value="Legenda:" style="text;html=1;strokeColor=none;fillColor=none;align=center;verticalAlign=middle;whiteSpace=wrap;rounded=0;" vertex="1" parent="Ake1GuRM7ROGLEXvObE3-38">
          <mxGeometry x="30" width="60" height="30" as="geometry" />
        </mxCell>
        <mxCell id="Ake1GuRM7ROGLEXvObE3-25" value="Todos" style="text;html=1;strokeColor=none;fillColor=none;align=center;verticalAlign=middle;whiteSpace=wrap;rounded=0;" vertex="1" parent="Ake1GuRM7ROGLEXvObE3-38">
          <mxGeometry y="40" width="60" height="30" as="geometry" />
        </mxCell>
        <mxCell id="Ake1GuRM7ROGLEXvObE3-26" value="" style="rounded=1;whiteSpace=wrap;html=1;" vertex="1" parent="Ake1GuRM7ROGLEXvObE3-38">
          <mxGeometry x="110" y="50" width="10" height="10" as="geometry" />
        </mxCell>
        <mxCell id="Ake1GuRM7ROGLEXvObE3-27" value="Municipe" style="text;html=1;strokeColor=none;fillColor=none;align=center;verticalAlign=middle;whiteSpace=wrap;rounded=0;" vertex="1" parent="Ake1GuRM7ROGLEXvObE3-38">
          <mxGeometry x="10" y="70" width="60" height="30" as="geometry" />
        </mxCell>
        <mxCell id="Ake1GuRM7ROGLEXvObE3-28" value="" style="rounded=1;whiteSpace=wrap;html=1;fillColor=#ddf8fa;strokeColor=default;" vertex="1" parent="Ake1GuRM7ROGLEXvObE3-38">
          <mxGeometry x="110" y="80" width="10" height="10" as="geometry" />
        </mxCell>
        <mxCell id="Ake1GuRM7ROGLEXvObE3-29" value="Adm. Municipal" style="text;html=1;strokeColor=none;fillColor=none;align=center;verticalAlign=middle;whiteSpace=wrap;rounded=0;" vertex="1" parent="Ake1GuRM7ROGLEXvObE3-38">
          <mxGeometry x="10" y="100" width="90" height="30" as="geometry" />
        </mxCell>
        <mxCell id="Ake1GuRM7ROGLEXvObE3-30" value="" style="rounded=1;whiteSpace=wrap;html=1;fillColor=#d9e7d6;" vertex="1" parent="Ake1GuRM7ROGLEXvObE3-38">
          <mxGeometry x="110" y="110" width="10" height="10" as="geometry" />
        </mxCell>
        <mxCell id="Ake1GuRM7ROGLEXvObE3-31" value="Administrador" style="text;html=1;strokeColor=none;fillColor=none;align=center;verticalAlign=middle;whiteSpace=wrap;rounded=0;" vertex="1" parent="Ake1GuRM7ROGLEXvObE3-38">
          <mxGeometry x="20" y="130" width="60" height="30" as="geometry" />
        </mxCell>
        <mxCell id="Ake1GuRM7ROGLEXvObE3-32" value="" style="rounded=1;whiteSpace=wrap;html=1;fillColor=#fbe7cf;" vertex="1" parent="Ake1GuRM7ROGLEXvObE3-38">
          <mxGeometry x="110" y="140" width="10" height="10" as="geometry" />
        </mxCell>
      </root>
    </mxGraphModel>
  </diagram>
</mxfile>
